
<svg xmlns="http://www.w3.org/2000/svg" version="1.1" xmlns:xlink="http://www.w3.org/1999/xlink" preserveAspectRatio="none" x="0px" y="0px" width="152px" height="152px" viewBox="0 0 152 152">
<defs>
<g id="Layer1_0_MEMBER_0_MEMBER_0_MEMBER_0_FILL">
<path fill="#999999" stroke="none" d="
M 144.55 45
Q 139 32.95 129.05 23 124.55 18.6 120.4 15.4 101.15 1 76 1 50.85 1 31.7 15.4 26.7 19.25 23 23 1 44.85 1 76 1 107.25 23 129 42.05 148.1 67.8 150.65 71.25 151 76 151 80.6 151 84.25 150.65 109.95 148.1 129.05 129 139.1 118.95 144.55 107 151 92.6 151 76 151 59.55 144.55 45 Z"/>
</g>

<g id="Layer0_0_FILL">
<path fill="#FFFFFF" stroke="none" d="
M 109.5 39.25
Q 105.55 39.95 99.5 44.2 92.9 48.85 85.6 57.8 79.2 65.6 76 71.8 72.8 65.6 66.4 57.8 59.1 48.85 52.5 44.2 46.45 39.95 42.55 39.25 40.05 38.85 37.65 39.9 35.9 40.7 35.1 43.25 34.55 45.1 34.55 47.5 34.55 49.9 35.3 58.55 36.15 68 36.7 69.9 38.7 76.6 45.3 79.65 51.2 82.4 58.75 81.55 46.25 83.4 42.9 87.95 38.3 94.15 49 106 60.25 117.65 67.75 109.45 70.5 106.45 72.85 100.65 74.15 97.35 76 91.15 76.85 93.9 78.8 100.5 80.8 106.25 83.25 109.15 90 117.1 102.75 106 112.9 95.75 108.6 88.95 105.05 83.3 93.25 81.55 100.8 82.4 106.7 79.65 113.35 76.6 115.3 69.9 115.9 68 116.7 58.55 117.45 49.9 117.45 47.55 117.45 45.15 116.9 43.25 116.15 40.7 114.35 39.9 112 38.85 109.5 39.25 Z"/>
</g>
</defs>

<g transform="matrix( 1, 0, 0, 1, 0,0) ">
<use xlink:href="#Layer1_0_MEMBER_0_MEMBER_0_MEMBER_0_FILL"/>
</g>

<g transform="matrix( 1, 0, 0, 1, 0,0) ">
<use xlink:href="#Layer0_0_FILL"/>
</g>
</svg>
