
<svg xmlns="http://www.w3.org/2000/svg" version="1.1" xmlns:xlink="http://www.w3.org/1999/xlink" preserveAspectRatio="none" x="0px" y="0px" width="155px" height="155px" viewBox="0 0 155 155">
<defs>
<g id="Layer0_0_FILL">
<path fill="#999999" stroke="none" d="
M 130.55 24.45
Q 126.4 20.3 121.9 16.9 102.7 2.5 77.5 2.5 52.35 2.5 33.2 16.9 28.65 20.3 24.5 24.45 2.5 46.4 2.5 77.5 2.5 108.55 24.5 130.5 43.5 149.55 69.3 152.1 73.3 152.5 77.5 152.5 81.7 152.5 85.75 152.1 111.55 149.55 130.55 130.5 140.6 120.45 146.05 108.5 152.5 94.35 152.5 77.5 152.5 60.65 146.05 46.5 140.6 34.5 130.55 24.45 Z"/>
</g>

<g id="___4_0_Layer0_0_MEMBER_0_FILL">
<path fill="#FFFFFF" stroke="none" d="
M 354.3 40
Q 345.9 40 338.25 43.25 330.85 46.35 325.1 52.1 319.4 57.8 316.3 65.2 313.05 72.85 313.05 81.25 313.05 88.4 315.4 95.05 317.7 101.5 321.95 106.85 326.15 112.2 331.85 115.85 337.65 119.65 344.35 121.3
L 344.35 93.85 335.8 93.85 335.8 81.25 344.35 81.25 344.35 75.8
Q 344.35 65.3 349.25 60.3 354.15 55.25 364.45 55.25 366.45 55.25 369.25 55.6 372.05 55.9 373.45 56.3
L 373.45 67.75
Q 372 67.55 368.65 67.55 363.6 67.55 361.45 69.7 359.3 71.8 359.3 76.8
L 359.3 81.25 372.75 81.25 370.45 93.85 359.3 93.85 359.3 122.2
Q 366.85 121.3 373.55 117.75 380.1 114.25 385.05 108.7 390.05 103.15 392.75 96.2 395.55 89 395.55 81.25 395.55 72.85 392.3 65.2 389.15 57.8 383.45 52.1 377.75 46.35 370.35 43.25 362.7 40 354.3 40 Z"/>
</g>

<g id="___4_0_Layer0_1_MEMBER_0_FILL">
<path fill="#CCCCCC" stroke="none" d="
M 621.3 265.05
Q 610.1 261.95 587.4 259.35 564.7 256.75 548.8 256.75 465.3 256.75 425.7 297.25 386.1 337.65 386.1 422.8
L 386.1 466.7 317.35 466.7 317.35 568.55 386.1 568.55 386.1 790.2
Q 425.55 800 466.6 800 487.15 800 507 797.6
L 507 568.55 597.15 568.55 615.85 466.7 507 466.7 507 430.65
Q 507 390.3 524.4 373.25 541.75 356.15 582.75 356.15 609.7 356.15 621.3 357.4
L 621.3 265.05 Z"/>
</g>
</defs>

<g transform="matrix( 1, 0, 0, 1, 0,0) ">
<use xlink:href="#Layer0_0_FILL"/>
</g>

<g transform="matrix( 1.134307861328125, 0, 0, 1.134307861328125, 30.7,30.7) ">
<g transform="matrix( 1, 0, 0, 1, -313.05,-40) ">
<use xlink:href="#___4_0_Layer0_0_MEMBER_0_FILL"/>
</g>

<g transform="matrix( 0.123748779296875, 0, 0, 0.123748779296875, -16.5,-16.5) ">
<use xlink:href="#___4_0_Layer0_1_MEMBER_0_FILL"/>
</g>
</g>
</svg>
