
<svg xmlns="http://www.w3.org/2000/svg" version="1.1" xmlns:xlink="http://www.w3.org/1999/xlink" preserveAspectRatio="none" x="0px" y="0px" width="155px" height="155px" viewBox="0 0 155 155">
<defs>
<g id="Layer0_0_FILL">
<path fill="#999999" stroke="none" d="
M 130.55 24.45
Q 126.4 20.3 121.9 16.9 102.7 2.5 77.5 2.5 52.35 2.5 33.2 16.9 28.65 20.3 24.5 24.45 2.5 46.4 2.5 77.5 2.5 108.55 24.5 130.5 43.5 149.55 69.3 152.1 73.3 152.5 77.5 152.5 81.7 152.5 85.75 152.1 111.55 149.55 130.55 130.5 140.6 120.45 146.05 108.5 152.5 94.35 152.5 77.5 152.5 60.65 146.05 46.5 140.6 34.5 130.55 24.45 Z"/>
</g>

<g id="Layer0_1_FILL">
<path fill="#FFFFFF" stroke="none" d="
M 119.05 48.95
Q 117.2 44.55 113.85 41.2 110.45 37.85 106.1 36 101.6 34.05 96.65 34.05
L 58.4 34.05
Q 53.45 34.05 48.95 36 44.55 37.85 41.2 41.2 37.85 44.55 36 48.95 34.05 53.45 34.05 58.4
L 34.05 96.65
Q 34.05 101.6 36 106.1 37.85 110.45 41.2 113.85 44.55 117.2 48.95 119.05 53.45 120.95 58.4 120.95
L 96.65 120.95
Q 101.6 120.95 106.1 119.05 110.45 117.2 113.85 113.85 117.2 110.45 119.05 106.1 120.95 101.6 120.95 96.65
L 120.95 58.4
Q 120.95 53.45 119.05 48.95
M 103.8 51.25
Q 105.3 52.75 105.3 54.9 105.3 57.1 103.8 58.6 102.25 60.15 100.1 60.15 97.95 60.15 96.4 58.6 94.9 57.1 94.9 54.9 94.9 52.75 96.4 51.25 97.95 49.7 100.1 49.7 102.25 49.7 103.8 51.25
M 92.25 62.75
Q 95.15 65.65 96.75 69.4 98.35 73.25 98.35 77.5 98.35 81.75 96.7 85.65 95.15 89.4 92.25 92.25 89.35 95.15 85.65 96.75 81.75 98.35 77.5 98.35 73.25 98.35 69.4 96.75 65.65 95.15 62.75 92.25 59.9 89.4 58.3 85.65 56.65 81.75 56.65 77.5 56.65 73.25 58.3 69.4 59.9 65.65 62.75 62.75 65.65 59.9 69.4 58.3 73.25 56.65 77.5 56.65 81.75 56.65 85.65 58.3 89.4 59.9 92.25 62.75
M 87.35 67.7
Q 85.4 65.75 82.9 64.7 80.35 63.6 77.5 63.6 74.7 63.6 72.1 64.7 69.6 65.75 67.7 67.7 65.75 69.6 64.7 72.1 63.6 74.7 63.6 77.5 63.6 80.35 64.7 82.95 65.75 85.45 67.7 87.35 69.6 89.25 72.1 90.35 74.7 91.4 77.5 91.4 80.35 91.4 82.9 90.35 85.4 89.25 87.35 87.35 89.25 85.45 90.35 82.95 91.4 80.35 91.4 77.5 91.4 74.7 90.3 72.1 89.25 69.6 87.35 67.7 Z"/>
</g>
</defs>

<g transform="matrix( 1, 0, 0, 1, 0,0) ">
<use xlink:href="#Layer0_0_FILL"/>
</g>

<g transform="matrix( 1, 0, 0, 1, 0,0) ">
<use xlink:href="#Layer0_1_FILL"/>
</g>
</svg>
