
<svg xmlns="http://www.w3.org/2000/svg" version="1.1" xmlns:xlink="http://www.w3.org/1999/xlink" preserveAspectRatio="none" x="0px" y="0px" width="155px" height="155px" viewBox="0 0 155 155">
<defs>
<g id="Layer0_0_FILL">
<path fill="#999999" stroke="none" d="
M 130.55 24.45
Q 126.4 20.3 121.9 16.9 102.7 2.5 77.5 2.5 52.35 2.5 33.2 16.9 28.65 20.3 24.5 24.45 2.5 46.4 2.5 77.5 2.5 108.55 24.5 130.5 43.5 149.55 69.3 152.1 73.3 152.5 77.5 152.5 81.7 152.5 85.75 152.1 111.55 149.55 130.55 130.5 140.6 120.45 146.05 108.5 152.5 94.35 152.5 77.5 152.5 60.65 146.05 46.5 140.6 34.5 130.55 24.45 Z"/>
</g>

<g id="Layer0_1_FILL">
<path fill="#FFFFFF" stroke="none" d="
M 111.75 44.85
Q 105.05 39.4 96.35 36.45 87.3 33.3 77.5 33.3 67.65 33.3 58.6 36.45 49.9 39.4 43.2 44.85 36.5 50.3 32.8 57.35 29 64.7 29 72.7 29 87.25 40.5 98.25 52 109.2 69.55 111.55 73.15 112.3 73.8 113.9 74.35 115.3 73.95 118.3
L 73.3 122.45
Q 72.95 124.3 73.35 125.05 74.15 126.45 77.5 125.05 82.8 122.8 94.65 114.55 108.85 104.65 115.6 96.9 120.85 91.1 123.4 85.2 126 79.2 126 72.7 126 64.7 122.15 57.35 118.45 50.3 111.75 44.85
M 64.25 62.2
L 67.65 62.2
Q 68 62.2 68.3 62.45 68.55 62.75 68.55 63.15
L 68.55 84.3
Q 68.55 84.65 68.3 84.95 68 85.2 67.65 85.2
L 64.25 85.2
Q 63.85 85.2 63.55 84.95 63.25 84.65 63.25 84.3
L 63.25 63.15
Q 63.25 62.75 63.55 62.45 63.85 62.2 64.25 62.2
M 91.05 62.2
Q 91.45 62.2 91.7 62.45 92 62.75 92 63.15
L 92 84.3
Q 92 84.65 91.7 84.95 91.45 85.2 91.05 85.2
L 87.4 85.2 87.1 85.05 86.85 84.8 77.15 71.7 77.15 84.3
Q 77.15 84.65 76.9 84.95 76.6 85.2 76.25 85.2
L 72.8 85.2
Q 72.45 85.2 72.15 84.95 71.85 84.65 71.85 84.3
L 71.85 63.15
Q 71.85 62.75 72.15 62.45 72.45 62.2 72.8 62.2
L 76.45 62.2 76.5 62.25 76.55 62.25 76.65 62.3 76.7 62.35 76.8 62.4 76.95 62.55 86.7 75.7 86.7 63.15
Q 86.7 62.75 86.95 62.45 87.25 62.2 87.65 62.2
L 91.05 62.2
M 44.9 63.15
Q 44.9 62.75 45.15 62.45 45.45 62.2 45.85 62.2
L 49.25 62.2
Q 49.65 62.2 49.9 62.45 50.15 62.75 50.15 63.15
L 50.15 79.9 59.4 79.9
Q 59.8 79.9 60.1 80.2 60.35 80.5 60.35 80.9
L 60.35 84.3
Q 60.35 84.65 60.1 84.95 59.8 85.2 59.4 85.2
L 45.85 85.2
Q 45.45 85.2 45.2 84.95
L 45.15 84.95
Q 44.9 84.65 44.9 84.3
L 44.9 63.15
M 110.75 66.55
Q 110.75 66.95 110.5 67.25 110.2 67.5 109.8 67.5
L 100.6 67.5 100.6 71.05 109.8 71.05
Q 110.2 71.05 110.5 71.35 110.75 71.65 110.75 72
L 110.75 75.4
Q 110.75 75.8 110.5 76.1 110.2 76.35 109.8 76.35
L 100.6 76.35 100.6 79.9 109.8 79.9
Q 110.2 79.9 110.5 80.2 110.75 80.5 110.75 80.9
L 110.75 84.3
Q 110.75 84.65 110.5 84.95 110.2 85.2 109.8 85.2
L 96.25 85.2
Q 95.85 85.2 95.6 84.95
L 95.55 84.95
Q 95.3 84.65 95.3 84.3
L 95.3 63.15
Q 95.3 62.75 95.55 62.5
L 95.6 62.45
Q 95.85 62.2 96.25 62.2
L 109.8 62.2
Q 110.2 62.2 110.5 62.45 110.75 62.75 110.75 63.15
L 110.75 66.55 Z"/>
</g>
</defs>

<g transform="matrix( 1, 0, 0, 1, 0,0) ">
<use xlink:href="#Layer0_0_FILL"/>
</g>

<g transform="matrix( 1, 0, 0, 1, 0,0) ">
<use xlink:href="#Layer0_1_FILL"/>
</g>
</svg>
