
<svg xmlns="http://www.w3.org/2000/svg" version="1.1" xmlns:xlink="http://www.w3.org/1999/xlink" preserveAspectRatio="none" x="0px" y="0px" width="610px" height="130px" viewBox="0 0 610 130">
<defs>
<g id="Layer1_0_FILL">
<path fill="#000000" fill-opacity="0.4" stroke="none" d="
M 93.65 33.1
Q 92.25 24.8 87.95 19.35 83.45 13.9 74.55 11.25 65.55 8.5 50.45 8.5 35.35 8.5 26.35 11.25 17.35 13.9 12.95 19.35 8.7 24.8 7.3 33.1 5.9 41.4 6 52.55
L 6 65.5
Q 5.9 75.5 6.95 83.2 8.05 90.85 11.25 96.35 14.55 101.8 21.2 105 27.95 108.2 39.2 109.25
L 85.4 128.5 73.7 107.1
Q 83.15 104.45 87.65 98.95 92.15 93.5 93.5 85.1 95 76.8 94.9 65.5
L 94.9 52.55
Q 95 41.4 93.65 33.1
M 50.45 32.2
Q 57.85 32.25 60.65 34.65 63.3 37.1 63.1 41.4
L 63.1 76.6
Q 63.3 80.95 60.65 83.4 57.85 85.85 50.45 85.85 43.05 85.85 40.3 83.4 37.6 80.95 37.7 76.6
L 37.7 41.4
Q 37.6 37.1 40.3 34.65 43.05 32.25 50.45 32.2
M 200 10.2
L 165.5 10.2 146.75 38.4 144.95 38.4 126.2 10.2 91.7 10.2 129.5 64.9 129.5 107.95 162.2 107.95 162.2 64.9 200 10.2
M 323.2 76.6
L 293.3 76.6 293.3 107.95 323.2 107.95 323.2 76.6
M 279.8 33.3
L 279.8 10.2 206.3 10.2 206.3 107.95 280.9 107.95 280.9 84.25 237.7 84.25 237.7 68.7 269.75 68.7 269.75 47.75 237.7 47.75 237.7 33.3 279.8 33.3
M 394.45 59.45
L 375.8 10.2 338.1 10.2 338.1 107.95 365.5 107.95 365.5 54.9 385.55 107.95 421.85 107.95 421.85 10.2 394.45 10.2 394.45 59.45
M 511.1 33.3
L 511.1 10.2 437.6 10.2 437.6 107.95 512.15 107.95 512.15 84.25 469 84.25 469 68.7 501 68.7 501 47.75 469 47.75 469 33.3 511.1 33.3
M 578.45 34.45
L 606 34.45 606 10.2 519.45 10.2 519.45 34.45 546.95 34.45 546.95 107.95 578.45 107.95 578.45 34.45 Z"/>
</g>

<g id="___1_0_Layer0_0_FILL">
<path fill="#FFFFFF" stroke="none" d="
M 74.45 0.9
L 65.7 15.85 64.85 15.85 56.1 0.9 40 0.9 57.65 29.9 57.65 52.7 72.9 52.7 72.9 29.9 90.55 0.9 74.45 0.9
M 41.5 23.35
Q 41.55 17.45 40.9 13.05 40.25 8.65 38.25 5.75 36.15 2.85 32 1.45 27.8 0 20.75 0 13.7 0 9.5 1.45 5.3 2.85 3.25 5.75 1.25 8.65 0.6 13.05 -0.05 17.45 0 23.35
L 0 30.2
Q -0.05 35.5 0.45 39.6 0.95 43.65 2.45 46.55 4 49.45 7.1 51.15 10.25 52.85 15.5 53.4
L 37.05 63.6 31.6 52.25
Q 36 50.85 38.1 47.95 40.2 45.05 40.85 40.6 41.55 36.2 41.5 30.2
L 41.5 23.35
M 20.75 12.55
Q 24.2 12.6 25.5 13.85 26.75 15.15 26.65 17.45
L 26.65 36.1
Q 26.75 38.4 25.5 39.7 24.2 41 20.75 41 17.3 41 16 39.7 14.75 38.4 14.8 36.1
L 14.8 17.45
Q 14.75 15.15 16 13.85 17.3 12.6 20.75 12.55
M 148.05 36.1
L 134.1 36.1 134.1 52.7 148.05 52.7 148.05 36.1
M 123.1 31.9
L 123.1 20.8 108.15 20.8 108.15 13.15 127.8 13.15 127.8 0.9 93.5 0.9 93.5 52.7 128.3 52.7 128.3 40.15 108.15 40.15 108.15 31.9 123.1 31.9
M 181.3 0.9
L 181.3 27 172.6 0.9 155 0.9 155 52.7 167.8 52.7 167.8 24.6 177.15 52.7 194.1 52.7 194.1 0.9 181.3 0.9
M 235.75 13.15
L 235.75 0.9 201.45 0.9 201.45 52.7 236.25 52.7 236.25 40.15 216.1 40.15 216.1 31.9 231.05 31.9 231.05 20.8 216.1 20.8 216.1 13.15 235.75 13.15
M 267.2 13.75
L 280.05 13.75 280.05 0.9 239.65 0.9 239.65 13.75 252.5 13.75 252.5 52.7 267.2 52.7 267.2 13.75 Z"/>
</g>
</defs>

<g transform="matrix( 1, 0, 0, 1, 0,0) ">
<use xlink:href="#Layer1_0_FILL"/>
</g>

<g transform="matrix( 2.1424560546875, 0, 0, 1.8867645263671875, 0,2.5) ">
<g transform="matrix( 1, 0, 0, 1, 0,0) ">
<use xlink:href="#___1_0_Layer0_0_FILL"/>
</g>
</g>
</svg>
