
<svg xmlns="http://www.w3.org/2000/svg" version="1.1" xmlns:xlink="http://www.w3.org/1999/xlink" preserveAspectRatio="none" x="0px" y="0px" width="610px" height="130px" viewBox="0 0 610 130">
<defs>
<g id="___2_0_Layer0_0_FILL">
<path fill="#000000" fill-opacity="0.4" stroke="none" d="
M 88.9 44.1
Q 89 32.7 87.6 24.65 86.15 16.2 81.9 10.85 77.3 5.35 68.55 2.75 59.4 0 44.45 0 29.5 0 20.35 2.75 11.35 5.35 6.95 10.85 2.7 16.35 1.25 24.65 -0.05 32.85 0 44.1
L 0 57
Q -0.1 67.7 0.95 74.75 2 82.25 5.2 87.85 8.6 93.35 15.2 96.55 22.1 99.75 79.35 120
L 67.7 98.6
Q 77.1 95.95 81.6 90.5 86.1 85.05 87.5 76.65 89 68.45 88.9 57
L 88.9 44.1
M 44.45 23.7
Q 51.75 23.8 54.6 26.15 57.3 28.6 57.05 32.95
L 57.05 68.15
Q 57.3 72.5 54.6 74.95 51.75 77.4 44.45 77.4 37.1 77.4 34.25 74.95 31.55 72.5 31.7 68.15
L 31.7 32.95
Q 31.55 28.65 34.25 26.15 37.1 23.8 44.45 23.7
M 159.5 1.7
L 140.75 29.95 138.9 29.95 120.15 1.7 85.65 1.7 123.5 56.45 123.5 99.45 156.15 99.45 156.15 56.45 193.95 1.7 159.5 1.7
M 317.15 68.15
L 287.3 68.15 287.3 99.45 317.15 99.45 317.15 68.15
M 273.8 24.85
L 273.8 1.7 200.3 1.7 200.3 99.45 274.85 99.45 274.85 75.8 231.7 75.8 231.7 60.2 263.7 60.2 263.7 39.25 231.7 39.25 231.7 24.85 273.8 24.85
M 388.4 1.7
L 388.4 50.95 369.75 1.7 332.05 1.7 332.05 99.45 359.5 99.45 359.5 46.45 379.5 99.45 415.85 99.45 415.85 1.7 388.4 1.7
M 505.05 24.85
L 505.05 1.7 431.55 1.7 431.55 99.45 506.15 99.45 506.15 75.8 462.95 75.8 462.95 60.2 495 60.2 495 39.25 462.95 39.25 462.95 24.85 505.05 24.85
M 572.45 25.95
L 599.95 25.95 599.95 1.7 513.4 1.7 513.4 25.95 540.95 25.95 540.95 99.45 572.45 99.45 572.45 25.95 Z"/>
</g>

<g id="___1_0_Layer0_0_FILL">
<path fill="#FFFFFF" stroke="none" d="
M 88.9 44.1
Q 89 32.7 87.6 24.65 86.15 16.2 81.9 10.85 77.3 5.35 68.55 2.75 59.4 0 44.45 0 29.5 0 20.35 2.75 11.35 5.35 6.95 10.85 2.7 16.35 1.25 24.65 -0.05 32.85 0 44.1
L 0 57
Q -0.1 67.7 0.95 74.75 2 82.25 5.2 87.85 8.6 93.35 15.2 96.55 22.1 99.75 79.35 120
L 67.7 98.6
Q 77.1 95.95 81.6 90.5 86.1 85.05 87.5 76.65 89 68.45 88.9 57
L 88.9 44.1
M 44.45 23.7
Q 51.75 23.8 54.6 26.15 57.3 28.6 57.05 32.95
L 57.05 68.15
Q 57.3 72.5 54.6 74.95 51.75 77.4 44.45 77.4 37.1 77.4 34.25 74.95 31.55 72.5 31.7 68.15
L 31.7 32.95
Q 31.55 28.65 34.25 26.15 37.1 23.8 44.45 23.7
M 159.5 1.7
L 140.75 29.95 138.9 29.95 120.15 1.7 85.65 1.7 123.5 56.45 123.5 99.45 156.15 99.45 156.15 56.45 193.95 1.7 159.5 1.7
M 317.15 68.15
L 287.3 68.15 287.3 99.45 317.15 99.45 317.15 68.15
M 273.8 24.85
L 273.8 1.7 200.3 1.7 200.3 99.45 274.85 99.45 274.85 75.8 231.7 75.8 231.7 60.2 263.7 60.2 263.7 39.25 231.7 39.25 231.7 24.85 273.8 24.85
M 388.4 1.7
L 388.4 50.95 369.75 1.7 332.05 1.7 332.05 99.45 359.5 99.45 359.5 46.45 379.5 99.45 415.85 99.45 415.85 1.7 388.4 1.7
M 505.05 24.85
L 505.05 1.7 431.55 1.7 431.55 99.45 506.15 99.45 506.15 75.8 462.95 75.8 462.95 60.2 495 60.2 495 39.25 462.95 39.25 462.95 24.85 505.05 24.85
M 572.45 25.95
L 599.95 25.95 599.95 1.7 513.4 1.7 513.4 25.95 540.95 25.95 540.95 99.45 572.45 99.45 572.45 25.95 Z"/>
</g>
</defs>

<g transform="matrix( 1, 0, 0, 1, 2.55,3.5) ">
<g transform="matrix( 1, 0, 0, 1, 5,5) ">
<g transform="matrix( 1, 0, 0, 1, 0,0) ">
<use xlink:href="#___2_0_Layer0_0_FILL"/>
</g>
</g>

<g transform="matrix( 1, 0, 0, 1, 0,0) ">
<g transform="matrix( 1, 0, 0, 1, 0,0) ">
<use xlink:href="#___1_0_Layer0_0_FILL"/>
</g>
</g>
</g>
</svg>
