
<svg xmlns="http://www.w3.org/2000/svg" version="1.1" xmlns:xlink="http://www.w3.org/1999/xlink" preserveAspectRatio="none" x="0px" y="0px" width="255px" height="255px" viewBox="0 0 255 255">
<defs>
<g id="Layer0_0_FILL">
<path fill="#FFCC00" stroke="none" d="
M 238.25 69.85
Q 235.55 61.35 231.3 53.5 226.75 45.1 220.6 37.55 193 2.5 143.95 2.5 94.9 2.5 54.05 37.55 13.65 72.25 4.7 122.65 1.35 140.5 3.15 156.45 5.65 184.9 24.05 207.7 51.05 241.25 116.95 250.6 172.75 256.85 252.5 242.8 193.3 222.45 199.5 201.65 200.45 198.75 202.85 196.1 204.5 194.2 206.35 192.2 221.25 175.95 230.1 156.45 234.8 146.3 237.75 135.35 239.45 129.15 240.55 122.65 245.75 93.75 238.25 69.85
M 168.45 122.65
Q 167.2 129.35 164.55 135.35 159.4 146.9 148.9 155.75 148.55 156.1 148.3 156.45 132.3 169.55 113.9 169.55 95.15 169.55 84.75 156.45 84.4 156.1 84.15 155.75 82 153.3 80.8 150.8 78 146.7 76.75 142.3 74 133.3 76.15 122.65 79.45 105.1 92.7 92.25 94.35 90.65 96.1 89.15 111.15 75.7 131.05 75.7 148.95 75.7 159.2 87.25 160.05 88.15 160.8 89.15 171.85 102.6 168.45 122.65 Z"/>
</g>
</defs>

<g transform="matrix( 1, 0, 0, 1, 0,0) ">
<use xlink:href="#Layer0_0_FILL"/>
</g>
</svg>
