
<svg xmlns="http://www.w3.org/2000/svg" version="1.1" xmlns:xlink="http://www.w3.org/1999/xlink" preserveAspectRatio="none" x="0px" y="0px" width="64px" height="64px" viewBox="0 0 64 64">
<defs>
<g id="Layer0_0_FILL">
<path fill="#002FA7" stroke="none" d="
M 63.2 32.05
Q 65.6 19.3 58.1 10.15 50.7 1.15 37.9 1.15 25.1 1.15 14.35 10.15 3.7 19.3 1.3 32.05 -0.9 44.95 6.45 53.9 13.8 62.95 26.65 62.95 39.45 62.95 50.2 53.9 60.95 44.8 63.2 32.05 Z"/>
</g>

<g id="Layer0_1_FILL">
<path fill="#FFFFFF" stroke="none" d="
M 45.7 44.1
Q 50.75 38.95 52 32.1 53.45 24.1 48.8 18.5 44.25 12.9 36.25 12.9 28.3 12.9 21.6 18.5 15 24.15 13.55 32.1 12.05 40.05 16.7 45.7 21.15 51.1 31.9 52.55 40.85 53.55 53.95 51.3 43.25 47.7 45.7 44.1
M 39.05 26.75
Q 40.8 28.95 40.3 32.1 39.7 35.25 37.1 37.4 34.45 39.6 31.4 39.6 28.3 39.6 26.5 37.4 24.65 35.2 25.2 32.1 25.8 29.05 28.45 26.75 30.95 24.6 34.15 24.6 37.25 24.6 39.05 26.75 Z"/>
</g>
</defs>

<g transform="matrix( 1, 0, 0, 1, -0.05,-0.05) ">
<use xlink:href="#Layer0_0_FILL"/>
</g>

<g transform="matrix( 1, 0, 0, 1, -1.3,-0.85) ">
<use xlink:href="#Layer0_1_FILL"/>
</g>
</svg>
