
<svg xmlns="http://www.w3.org/2000/svg" version="1.1" xmlns:xlink="http://www.w3.org/1999/xlink" preserveAspectRatio="none" x="0px" y="0px" width="64px" height="64px" viewBox="0 0 64 64">
<defs>
<g id="___2_0_Layer0_0_FILL">
<path fill="#A5356A" stroke="none" d="
M 505.6 250.6
Q 524.6 146.95 464.2 73.3 404.2 0 300.55 0 196.9 0 109.95 73.3 23.4 146.95 4.4 250.6 -14.2 354.3 45.8 427.55 105.8 501.2 209.45 501.2 313.1 501.2 400.05 427.55 487 354.3 505.6 250.6 Z"/>
</g>

<g id="___1_0_Layer0_0_FILL">
<path fill="#FFFFFF" stroke="none" d="
M 52.1 49.15
Q 38.43515625 44.5115234375 41.55 39.9 48.05 33.3 49.6 24.55 51.45 14.4 45.55 7.15 39.7 0 29.5 0 19.35 0 10.8 7.15 2.3 14.4 0.45 24.55 -1.4 34.75 4.5 41.95 10.25 48.95 23.95 50.7 35.2677734375 51.9904296875 52.1 49.15
M 26.8 14.95
Q 30.75 14.95 33.05 17.75 35.35 20.6 34.65 24.55 33.95 28.55 30.6 31.35 27.25 34.15 23.3 34.15 19.3 34.15 17 31.35 14.7 28.55 15.4 24.55 16.15 20.6 19.5 17.75 22.8 14.95 26.8 14.95 Z"/>
</g>
</defs>

<g transform="matrix( 0.123504638671875, 0, 0, 0.1233978271484375, 0.8,1.1) ">
<g transform="matrix( 1, 0, 0, 1, 0,0) ">
<use xlink:href="#___2_0_Layer0_0_FILL"/>
</g>

<g transform="matrix( 6.33514404296875, 0, 0, 6.33514404296875, 100.4,95.35) ">
<g transform="matrix( 1, 0, 0, 1, 0,0) ">
<use xlink:href="#___1_0_Layer0_0_FILL"/>
</g>
</g>
</g>
</svg>
