
<svg xmlns="http://www.w3.org/2000/svg" version="1.1" xmlns:xlink="http://www.w3.org/1999/xlink" preserveAspectRatio="none" x="0px" y="0px" width="254px" height="254px" viewBox="0 0 254 254">
<defs>
<g id="Layer0_0_FILL">
<path fill="#FFA500" stroke="none" d="
M 237.75 69.35
Q 234.85 60.65 230.8 53 226.15 44.65 220.1 37.05 192.35 2 143.35 2 94.4 2 53.5 37.05 13.05 71.95 4.15 122.2 0.85 140.05 2.65 155.9 5.05 184.35 23.5 207.15 50.4 240.7 116.4 250.15 172.45 256.25 252 242.35 192.8 221.9 199 201.15 199.8 198.45 202.35 195.65 203 194.75 205.85 191.65 220.6 175.55 229.6 155.9 234.35 145.35 237.25 134.9 238.95 128.2 240.05 122.2 245.25 93.15 237.75 69.35
M 167.85 122.2
Q 166.65 128.8 164.05 134.9 158.95 146.35 148.35 155.2
L 147.8 155.9
Q 131.7 169.1 113.4 169.1 94.6 169.1 84.25 155.9 83.85 155.55 83.65 155.2 81.3 152.6 80.3 150.35 77.35 146.05 76.25 141.85 73.4 132.8 75.65 122.2 78.8 104.8 92.15 91.75
L 95.55 88.7
Q 110.65 75.2 130.55 75.2 148.4 75.2 158.6 86.75 159.5 87.6 160.3 88.7 171.3 102.15 167.85 122.2 Z"/>
</g>
</defs>

<g transform="matrix( 1, 0, 0, 1, 0,0) ">
<use xlink:href="#Layer0_0_FILL"/>
</g>
</svg>
