
<svg xmlns="http://www.w3.org/2000/svg" version="1.1" xmlns:xlink="http://www.w3.org/1999/xlink" preserveAspectRatio="none" x="0px" y="0px" width="152px" height="152px" viewBox="0 0 152 152">
<defs>
<g id="Layer0_0_FILL">
<path fill="#FFFFFF" stroke="none" d="
M 1 109
L 1 151 43 151 43 109 1 109
M 7.3 144.7
L 7.3 115.3 36.7 115.3 36.7 144.7 7.3 144.7
M 13 139
L 31 139 31 121 13 121 13 139
M 19 91
L 19 97 25 97 25 91 19 91
M 19 97
L 13 97 13 103 19 103 19 97
M 7 91
L 13 91 13 85 7 85 7 91
M 7 97
L 7 91 1 91 1 97 7 97
M 43 43
L 43 1 1 1 1 43 43 43
M 7.3 7.3
L 36.7 7.3 36.7 36.7 7.3 36.7 7.3 7.3
M 31 13
L 13 13 13 31 31 31 31 13
M 55 139
L 55 145 61 145 61 151 73 151 73 145 97 145 97 139 91 139 91 133 85 133 85 139 55 139
M 55 145
L 49 145 49 151 55 151 55 145
M 49 97
L 37 97 37 103 49 103 49 97
M 79 97
L 73 97 73 103 79 103 79 97
M 67 97
L 61 97 61 109 55 109 55 103 49 103 49 121 55 121 55 115 61 115 61 121 55 121 55 127 49 127 49 139 55 139 55 133 67 133 67 121 73 121 73 115 67 115 67 97
M 49 55
L 49 61 55 61 55 55 49 55
M 79 73
L 73 73 73 79 67 79 67 97 73 97 73 85 79 85 79 73
M 31 85
L 31 91 61 91 61 85 49 85 49 79 55 79 55 73 61 73 61 79 67 79 67 73 73 73 73 67 67 67 67 61 61 61 61 67 49 67 49 73 37 73 37 79 43 79 43 85 37 85 37 79 25 79 25 73 19 73 19 85 31 85
M 25 49
L 13 49 13 55 19 55 19 61 25 61 25 73 37 73 37 67 43 67 43 61 37 61 37 55 49 55 49 49 31 49 31 55 25 55 25 49
M 7 49
L 1 49 1 61 7 61 7 67 1 67 1 79 13 79 13 67 19 67 19 61 13 61 13 55 7 55 7 49
M 67 37
L 61 37 61 43 67 43 67 37
M 55 25
L 55 31 61 31 61 25 55 25
M 49 37
L 49 49 61 49 61 43 55 43 55 37 49 37
M 55 19
L 49 19 49 25 55 25 55 19
M 61 19
L 61 13 55 13 55 19 61 19
M 61 7
L 61 1 49 1 49 13 55 13 55 7 61 7
M 85 67
L 85 49 79 49 79 55 67 55 67 61 79 61 79 67 85 67
M 133 85
L 133 91 145 91 145 85 133 85
M 139 73
L 139 67 127 67 127 73 133 73 133 79 145 79 145 85 151 85 151 73 139 73
M 85 91
L 85 85 79 85 79 91 85 91
M 97 73
L 85 73 85 85 103 85 103 79 97 79 97 73
M 103 67
L 103 61 97 61 97 67 103 67
M 115 73
L 115 67 103 67 103 79 109 79 109 85 121 85 121 91 115 91 115 97 109 97 109 85 103 85 103 97 97 97 97 91 85 91 85 109 79 109 79 127 91 127 91 121 97 121 97 127 109 127 109 133 103 133 103 145 115 145 115 127 121 127 121 145 115 145 115 151 151 151 151 145 139 145 139 139 145 139 145 133 151 133 151 127 133 127 133 121 127 121 127 103 133 103 133 115 145 115 145 121 151 121 151 91 145 91 145 97 127 97 127 73 115 73
M 145 103
L 145 109 139 109 139 103 145 103
M 133 133
L 133 145 127 145 127 133 133 133
M 103 103
L 121 103 121 121 103 121 103 103
M 97 115
L 91 115 91 109 97 109 97 115
M 109 109
L 109 115 115 115 115 109 109 109
M 103 61
L 109 61 109 55 103 55 103 61
M 121 55
L 115 55 115 67 121 67 121 55
M 115 49
L 109 49 109 55 115 55 115 49
M 91 19
L 97 19 97 13 73 13 73 7 79 7 79 1 67 1 67 7 61 7 61 13 67 13 67 19 73 19 73 31 67 31 67 37 73 37 73 49 79 49 79 37 85 37 85 49 91 49 91 55 103 55 103 25 91 25 91 31 97 31 97 43 91 43 91 31 79 31 79 25 91 25 91 19
M 103 7
L 103 1 97 1 97 7 103 7
M 151 43
L 151 1 109 1 109 43 151 43
M 144.7 7.3
L 144.7 36.7 115.3 36.7 115.3 7.3 144.7 7.3
M 139 31
L 139 13 121 13 121 31 139 31
M 133 49
L 127 49 127 55 133 55 133 49
M 151 49
L 139 49 139 61 145 61 145 55 151 55 151 49 Z"/>
</g>
</defs>

<g transform="matrix( 1, 0, 0, 1, 0,0) ">
<use xlink:href="#Layer0_0_FILL"/>
</g>
</svg>
