
<svg xmlns="http://www.w3.org/2000/svg" version="1.1" xmlns:xlink="http://www.w3.org/1999/xlink" preserveAspectRatio="none" x="0px" y="0px" width="155px" height="155px" viewBox="0 0 155 155">
<defs>
<g id="Layer0_0_FILL">
<path fill="#999999" stroke="none" d="
M 130.55 24.45
Q 126.4 20.3 121.9 16.9 102.7 2.5 77.5 2.5 52.35 2.5 33.2 16.9 28.65 20.3 24.5 24.45 2.5 46.4 2.5 77.5 2.5 108.55 24.5 130.5 43.5 149.55 69.3 152.1 73.3 152.5 77.5 152.5 81.7 152.5 85.75 152.1 111.55 149.55 130.55 130.5 140.6 120.45 146.05 108.5 152.5 94.35 152.5 77.5 152.5 60.65 146.05 46.5 140.6 34.5 130.55 24.45 Z"/>
</g>

<g id="Layer0_1_FILL">
<path fill="#FFFFFF" stroke="none" d="
M 1732.4 738.7
L 1726.85 740.65
Q 1656.4 769.55 1575.55 802.95 1413.9 869.8 1361.95 892.35 1145.2 982.7 520.2 1239.2 469.3 1259.05 448.15 1281.1 431.2 1298.7 433.95 1316.9 435.95 1329.85 447.55 1341.85 453.4 1347.8 458.8 1351.2
L 535.55 1376.95
Q 625.9 1406.75 693.6 1427.05 761.35 1447.35 817.35 1437.45 834.85 1434.35 849.1 1428.6 856.2 1425.7 859.8 1423.45 923.05 1381.9 1018.3 1318.25 1208.9 1190.9 1369.2 1080.25 1432.2 1037.4 1466.2 1025.7 1494.85 1015.85 1500.2 1028.75 1504.65 1039.65 1492.15 1062.95 1480.65 1084.4 1463.15 1101.9 1392.15 1172.9 1287 1273.05 1180.65 1374.4 1083.8 1463.2 1045.3 1496.9 1050.85 1531.8 1054.85 1557.05 1080.2 1578.8 1138.1 1627.8 1292.4 1730.95 1335.4 1759.7 1395.15 1798.75 1442.1 1829.45 1445.05 1831.65 1454.1 1838.9 1472.3 1849.95 1495.65 1864.2 1519.15 1875.05 1586.2 1906 1625.7 1896.7 1664.1 1887.65 1683.05 1842.5 1689 1828.4 1692.25 1812.35
L 1694.35 1799.15
Q 1741.3 1502.9 1784.65 1231.95 1813.55 1044.1 1824.85 969.6 1843.8 844.35 1846.05 812.9 1849.8 770.65 1832 749.8 1817.8 733.1 1790.5 730.7 1771.05 729 1747 734.65 1739.5 736.45 1732.4 738.7 Z"/>
</g>
</defs>

<g transform="matrix( 1, 0, 0, 1, 0,0) ">
<use xlink:href="#Layer0_0_FILL"/>
</g>

<g transform="matrix( 0.0606842041015625, 0, 0, 0.0606842041015625, 2.3,-2.3) ">
<use xlink:href="#Layer0_1_FILL"/>
</g>
</svg>
