
<svg xmlns="http://www.w3.org/2000/svg" version="1.1" xmlns:xlink="http://www.w3.org/1999/xlink" preserveAspectRatio="none" x="0px" y="0px" width="152px" height="152px" viewBox="0 0 152 152">
<defs>
<g id="Layer0_0_MEMBER_0_MEMBER_0_MEMBER_0_FILL">
<path fill="#999999" stroke="none" d="
M 146.05 46.5
Q 140.55 34.4 130.55 24.5 126.4 20.35 121.9 16.9 102.65 2.5 77.5 2.5 52.35 2.5 33.2 16.9 28.45 20.5 24.5 24.5 2.5 46.35 2.5 77.5 2.5 108.65 24.5 130.5 43.55 149.6 69.3 152.15 73 152.5 77.5 152.5 81.9 152.5 85.75 152.15 111.45 149.6 130.55 130.5 140.6 120.45 146.05 108.5 152.5 94.25 152.5 77.5 152.5 60.85 146.05 46.5 Z"/>
</g>

<g id="___1_0_Layer0_0_FILL">
<path fill="#FFFFFF" stroke="none" d="
M 51.1 14.55
Q 54.25 18.5 55.9 24.35
L 61.95 22.75
Q 60 15.6 55.85 10.5 51.7 5.35 45.55 2.7 39.45 0.05 31.55 0
L 31.5 0
Q 23.6 0.05 17.55 2.7 11.5 5.35 7.45 10.55 0.15 19.8 0 36
L 0 36.05
Q 0.05 44.1 1.95 50.5 3.8 56.85 7.45 61.5 11.5 66.65 17.55 69.3 23.6 71.95 31.5 72
L 31.55 72
Q 38.55 71.95 43.7 70.05 48.85 68.15 52.95 64.05 57.85 59.15 58.75 52.7 59.5 47.35 57.5 42.6 56.25 39.65 53.85 37.3 51.5 34.95 48.2 33.4 47.55 33.05 47.25 32.95 46.85 25.25 42.8 21.05 38.75 16.85 31.7 16.8 27.55 16.75 24.15 18.45 20.65 20.2 18.4 23.55
L 23.6 27.1
Q 25.05 24.9 27.45 23.9 29.3 23.15 31.6 23.15
L 31.7 23.15
Q 36.35 23.15 38.6 25.8 40.25 27.7 40.85 31.1 36.75 30.4 31.95 30.65 25.25 31.05 21.3 34.6 17.35 38.2 17.65 43.6 17.8 46.4 19.15 48.65 20.45 50.95 22.8 52.5 24.8 53.85 27.25 54.45 29.75 55.05 32.4 54.9 39.45 54.55 43.3 49.6 46.15 45.9 47 39.9 50.4 41.95 51.8 45.15 53.15 48.3 52.6 51.85 51.9 56.2 48.6 59.5 45.4 62.7 41.35 64.15 37.3 65.6 31.5 65.65 25.1 65.6 20.25 63.55 15.45 61.5 12.3 57.5 6.35 50 6.25 36 6.35 22.05 12.3 14.5 15.45 10.5 20.25 8.45 25.1 6.4 31.5 6.35 44.5 6.45 51.1 14.55
M 37.65 46.5
Q 35.65 48.35 32.05 48.55 28.9 48.75 26.55 47.4 24 45.95 23.85 43.3 23.75 40.9 25.6 39.25 27.8 37.25 32.3 37 33.4 36.95 34.45 36.95 37.95 36.95 40.95 37.6 40.5 43.85 37.65 46.5 Z"/>
</g>
</defs>

<g transform="matrix( 1, 0, 0, 1, -1.5,-1.5) ">
<use xlink:href="#Layer0_0_MEMBER_0_MEMBER_0_MEMBER_0_FILL"/>
</g>

<g transform="matrix( 1.323089599609375, 0, 0, 1.323089599609375, 35.1,28.4) ">
<g transform="matrix( 1, 0, 0, 1, 0,0) ">
<use xlink:href="#___1_0_Layer0_0_FILL"/>
</g>
</g>
</svg>
