
<svg xmlns="http://www.w3.org/2000/svg" version="1.1" xmlns:xlink="http://www.w3.org/1999/xlink" preserveAspectRatio="none" x="0px" y="0px" width="150px" height="150px" viewBox="0 0 150 150">
<defs>
<g id="Layer0_0_MEMBER_0_MEMBER_0_MEMBER_0_FILL">
<path fill="#999999" stroke="none" d="
M 146.05 46.5
Q 140.55 34.4 130.55 24.5 126.4 20.35 121.9 16.9 102.65 2.5 77.5 2.5 52.35 2.5 33.2 16.9 28.45 20.5 24.5 24.5 2.5 46.35 2.5 77.5 2.5 108.65 24.5 130.5 43.55 149.6 69.3 152.15 73 152.5 77.5 152.5 81.9 152.5 85.75 152.15 111.45 149.6 130.55 130.5 140.6 120.45 146.05 108.5 152.5 94.25 152.5 77.5 152.5 60.85 146.05 46.5 Z"/>
</g>

<g id="___1_0_Layer0_0_FILL">
<path fill="#FFFFFF" stroke="none" d="
M 82.5 39
L 82.5 22.8
Q 80.8 23 78.2 22.45 75.1 21.75 72.2 20.3 71.25 19.8 70.35 19.2 67.7 17.5 65.55 15.15 63.1 12.35 61.7 9.1 60.55 6.6 60.1 3.95
L 60.15 3.95
Q 59.85 2.45 59.85 1.05 59.85 0 59.9 0
L 43.55 0 43.55 63.15
Q 43.55 64.8 43.55 65.65
L 43.55 66
Q 43.55 66.05 43.55 66.1
L 43.55 66.15
Q 43.25 69.6 41.4 72.55 39.55 75.45 36.55 77.15 35 78.05 33.25 78.5 31.55 78.95 29.75 78.95 27 78.95 24.4 77.85 21.9 76.8 20.05 74.9 18.15 72.95 17.1 70.5 16 67.85 16 65.05 16 62.25 17.1 59.65 18.15 57.15 20.05 55.3 21.95 53.35 24.4 52.3 27 51.2 29.75 51.2 31.95 51.2 34.05 51.85
L 34.05 35.25
Q 27.7 34.45 21.65 36.2 15.5 38 10.65 42.1 6.45 45.75 3.65 50.7 2.55 52.6 1.7 55.1 0.25 59.45 0.05 64.4 -0.1 67.3 0.65 70.8 1.05 73.05 1.8 75.3 2.3 76.75 3.25 78.6 4.6 81.3 6.25 83.4 9.3 87.25 13.3 90.1
L 13.3 90.05 13.35 90.1
Q 18.3 93.45 24.65 94.6 27.85 95.2 30.05 95.1 33 95 34.65 94.7 38.75 94.1 42.4 92.35 46.45 90.45 49.85 87.45 50.9 86.5 51.8 85.6
L 52.45 84.8
Q 55.95 80.7 57.95 75.7 58.95 73.1 59.45 69.7 59.9 67.1 59.9 65.3
L 59.9 31.75 63.45 34.05
Q 64.35 34.55 65.4 35.05 68.75 36.7 72.5 37.7 75.15 38.35 79.1 38.8 81.05 39 82.5 39 Z"/>
</g>
</defs>

<g transform="matrix( 0.986663818359375, 0, 0, 0.986663818359375, -1.45,-1.45) ">
<use xlink:href="#Layer0_0_MEMBER_0_MEMBER_0_MEMBER_0_FILL"/>
</g>

<g transform="matrix( 0.986663818359375, 0, 0, 0.986663818359375, 34.3,28.1) ">
<g transform="matrix( 1, 0, 0, 1, 0,0) ">
<use xlink:href="#___1_0_Layer0_0_FILL"/>
</g>
</g>
</svg>
