<?xml version="1.0" encoding="UTF-8"?>
<!DOCTYPE svg PUBLIC '-//W3C//DTD SVG 1.1//EN' 'http://www.w3.org/Graphics/SVG/1.1/DTD/svg11.dtd'>
<svg viewBox="0 0 88 31" xmlns="http://www.w3.org/2000/svg" xmlns:xlink="http://www.w3.org/1999/xlink">
 <defs>
  <path id="a" d="M0 30h83v1H0z"/>
  <clipPath id="n">
   <use image-rendering="optimizeQuality" shape-rendering="geometricPrecision" text-rendering="geometricPrecision" xlink:href="#a"/>
  </clipPath>
  <clipPath id="o">
   <use image-rendering="optimizeQuality" shape-rendering="geometricPrecision" text-rendering="geometricPrecision" xlink:href="#b"/>
  </clipPath>
  <clipPath id="p">
   <use image-rendering="optimizeQuality" shape-rendering="geometricPrecision" text-rendering="geometricPrecision" xlink:href="#c"/>
  </clipPath>
  <clipPath id="q">
   <use image-rendering="optimizeQuality" shape-rendering="geometricPrecision" text-rendering="geometricPrecision" xlink:href="#d"/>
  </clipPath>
  <clipPath id="r">
   <use image-rendering="optimizeQuality" shape-rendering="geometricPrecision" text-rendering="geometricPrecision" xlink:href="#e"/>
  </clipPath>
  <clipPath id="s">
   <use image-rendering="optimizeQuality" shape-rendering="geometricPrecision" text-rendering="geometricPrecision" xlink:href="#f"/>
  </clipPath>
  <clipPath id="t">
   <use image-rendering="optimizeQuality" shape-rendering="geometricPrecision" text-rendering="geometricPrecision" xlink:href="#g"/>
  </clipPath>
  <clipPath id="u">
   <use image-rendering="optimizeQuality" shape-rendering="geometricPrecision" text-rendering="geometricPrecision" xlink:href="#h"/>
  </clipPath>
  <clipPath id="v">
   <use image-rendering="optimizeQuality" shape-rendering="geometricPrecision" text-rendering="geometricPrecision" xlink:href="#i"/>
  </clipPath>
  <clipPath id="w">
   <use image-rendering="optimizeQuality" shape-rendering="geometricPrecision" text-rendering="geometricPrecision" xlink:href="#j"/>
  </clipPath>
  <clipPath id="x">
   <use image-rendering="optimizeQuality" shape-rendering="geometricPrecision" text-rendering="geometricPrecision" xlink:href="#k"/>
  </clipPath>
  <clipPath id="y">
   <use image-rendering="optimizeQuality" shape-rendering="geometricPrecision" text-rendering="geometricPrecision" xlink:href="#l"/>
  </clipPath>
  <clipPath id="z">
   <use image-rendering="optimizeQuality" shape-rendering="geometricPrecision" text-rendering="geometricPrecision" xlink:href="#m"/>
  </clipPath>
  <path id="b" d="m82 0h1v31h-1z"/>
  <path id="c" d="M0 30h83v1H0z"/>
  <path id="d" d="m2.16 29.01h80v1h-80z"/>
  <path id="e" d="M0 30h83v1H0z"/>
  <path id="f" d="m82 0h1v31h-1z"/>
  <path id="g" d="M0 30h83v1H0z"/>
  <path id="h" d="m80.81 1h1v30h-1z"/>
  <path id="i" d="M0 30h83v1H0z"/>
  <path id="j" d="m2.16 29.01h80v1h-80z"/>
  <path id="k" d="M0 30h83v1H0z"/>
  <path id="l" d="m82 0h1v31h-1z"/>
  <path id="m" d="M0 30h83v1H0z"/>
 </defs>
 <g image-rendering="optimizeQuality" shape-rendering="geometricPrecision" text-rendering="geometricPrecision">
  <path d="M0 0h88v31H0z" fill="none"/>
  <path d="M0 0h83v31H0z" fill="#fc6"/>
  <path d="M.37 0h36.44v31H.37z" fill="#fff"/>
  <path d="M4.69 2.29H44.7V26.9H4.69z" fill="none"/>
  <use fill="#504d4c" xlink:href="#a"/>
  <g clip-path="url(#n)">
   <path d="M0 0h88v31H0z" fill="none"/>
   <path d="M0 0h83v31H0z" fill="#4e4b3f"/>
   <path d="M.37 0h36.44v31H.37z" fill="#4f4f4f"/>
  </g>
  <use fill="#504d4c" xlink:href="#b"/>
  <g clip-path="url(#o)">
   <path d="M0 0h88v31H0z" fill="none"/>
   <path d="M0 0h83v31H0z" fill="#4e4b3f"/>
   <use fill="#191919" xlink:href="#c"/>
   <g clip-path="url(#p)">
    <path d="M0 0h88v31H0z" fill="none"/>
    <path d="M0 0h83v31H0z" fill="#191917"/>
    <path d="M.37 0h36.44v31H.37z" fill="#191919"/>
   </g>
  </g>
  <path d="M0 0h1v31H0z" fill="#ccc"/>
  <use fill="#9e9c9c" xlink:href="#d"/>
  <g clip-path="url(#q)">
   <path d="M0 0h88v31H0z" fill="none"/>
   <path d="M0 0h83v31H0z" fill="#b39f67"/>
   <path d="M.37 0h36.44v31H.37z" fill="#b5b5b5"/>
   <use fill="#383838" xlink:href="#e"/>
   <g clip-path="url(#r)">
    <path d="M0 0h88v31H0z" fill="none"/>
    <path d="M0 0h83v31H0z" fill="#383530"/>
    <path d="M.37 0h36.44v31H.37z" fill="#383838"/>
   </g>
   <use fill="#383838" xlink:href="#f"/>
   <g clip-path="url(#s)">
    <path d="M0 0h88v31H0z" fill="none"/>
    <path d="M0 0h83v31H0z" fill="#383530"/>
    <use fill="#131313" xlink:href="#g"/>
    <g clip-path="url(#t)">
     <path d="M0 0h88v31H0z" fill="none"/>
     <g fill="#131313">
      <path d="M0 0h83v31H0z"/>
      <path d="M.37 0h36.44v31H.37z"/>
     </g>
    </g>
   </g>
  </g>
  <use fill="#9e9c9c" xlink:href="#h"/>
  <g clip-path="url(#u)">
   <path d="M0 0h88v31H0z" fill="none"/>
   <path d="M0 0h83v31H0z" fill="#b39f67"/>
   <use fill="#383838" xlink:href="#i"/>
   <g clip-path="url(#v)">
    <path d="M0 0h88v31H0z" fill="none"/>
    <path d="M0 0h83v31H0z" fill="#383530"/>
    <path d="M.37 0h36.44v31H.37z" fill="#383838"/>
   </g>
   <use fill="#818181" xlink:href="#j"/>
   <g clip-path="url(#w)">
    <path d="M0 0h88v31H0z" fill="none"/>
    <path d="M0 0h83v31H0z" fill="#807659"/>
    <path d="M.37 0h36.44v31H.37z" fill="#818181"/>
    <use fill="#272727" xlink:href="#k"/>
    <g clip-path="url(#x)">
     <path d="M0 0h88v31H0z" fill="none"/>
     <path d="M0 0h83v31H0z" fill="#272623"/>
     <path d="M.37 0h36.44v31H.37z" fill="#272727"/>
    </g>
    <use fill="#272727" xlink:href="#l"/>
    <g clip-path="url(#y)">
     <path d="M0 0h88v31H0z" fill="none"/>
     <path d="M0 0h83v31H0z" fill="#272623"/>
     <use fill="#101010" xlink:href="#m"/>
     <g clip-path="url(#z)">
      <path d="M0 0h88v31H0z" fill="none"/>
      <g fill="#101010">
       <path d="M0 0h83v31H0z"/>
       <path d="M.37 0h36.44v31H.37z"/>
      </g>
     </g>
    </g>
   </g>
  </g>
  <path d="M0 0h83v1H0z" fill="#ccc"/>
  <path d="M68.27 18.85l6.02 5.5L86 12.64" clip-rule="evenodd" fill="none" stroke="#900" stroke-miterlimit="3.86" stroke-width="4.81"/>
  <path d="M45.77 18.32c-.35.18-.71.31-1.08.41-.38.09-.77.14-1.17.14-1.21 0-2.18-.34-2.89-1.02s-1.06-1.6-1.06-2.76.35-2.09 1.06-2.76c.71-.68 1.67-1.02 2.89-1.02.41 0 .8.05 1.17.14s.73.23 1.08.41v1.51c-.35-.24-.69-.41-1.03-.52s-.7-.17-1.07-.17c-.67 0-1.2.22-1.58.65s-.58 1.02-.58 1.78c0 .75.19 1.34.58 1.77.38.43.91.65 1.58.65.37 0 .73-.06 1.07-.17s.68-.28 1.03-.52v1.51zm6.73-6.66v1.54c-.4-.18-.79-.31-1.17-.41a4.71 4.71 0 0 0-1.08-.14c-.45 0-.78.06-1 .19s-.32.32-.32.58c0 .2.07.35.21.46.15.11.41.2.79.28l.8.16c.81.16 1.39.41 1.73.74s.51.8.51 1.42c0 .8-.24 1.4-.72 1.8-.48.39-1.2.59-2.18.59-.46 0-.93-.04-1.39-.13s-.93-.22-1.4-.39v-1.59c.47.25.92.44 1.35.56.44.12.86.19 1.26.19.41 0 .72-.07.94-.21s.33-.33.33-.59c0-.23-.08-.4-.23-.53-.15-.12-.44-.23-.88-.33l-.73-.16c-.73-.16-1.26-.41-1.6-.75s-.5-.8-.5-1.38c0-.73.23-1.28.7-1.68s1.14-.59 2.02-.59c.4 0 .81.03 1.24.09.42.06.86.15 1.31.27zm7.31 0v1.54c-.4-.18-.79-.31-1.17-.41s-.74-.14-1.08-.14c-.45 0-.78.06-1 .19s-.32.32-.32.58c0 .2.07.35.22.46s.41.2.79.28l.8.16c.81.16 1.39.41 1.73.74s.51.8.51 1.42c0 .8-.24 1.4-.72 1.8-.48.39-1.2.59-2.18.59-.46 0-.93-.04-1.39-.13s-.93-.22-1.4-.39v-1.59c.47.25.92.44 1.35.56.44.12.86.19 1.26.19.41 0 .72-.07.94-.21s.33-.33.33-.59c0-.23-.08-.4-.23-.53-.15-.12-.44-.23-.88-.33l-.73-.16c-.73-.16-1.26-.41-1.6-.75s-.5-.8-.5-1.38c0-.73.23-1.28.7-1.68s1.14-.59 2.02-.59c.4 0 .81.03 1.24.09s.86.15 1.32.27z" clip-rule="evenodd" fill-rule="evenodd"/>
  <path d="M33.08 7.04l.33 2.03-1.19 2.27s-.46-.96-1.21-1.49c-.64-.45-1.05-.55-1.7-.41-.83.17-1.78 1.17-2.19 2.4-.49 1.47-.5 2.18-.52 2.83-.03 1.05.14 1.66.14 1.67s-.72-1.33-.71-3.28c.01-1.39.22-2.65.87-3.9.57-1.1 1.41-1.75 2.15-1.83.77-.08 1.38.29 1.85.7.5.42 1 1.35 1 1.35l1.17-2.33zm.14 11.51s-.52.94-.85 1.3-.91 1-1.63 1.31c-.72.32-1.1.38-1.81.31s-1.37-.48-1.61-.65c-.23-.17-.82-.68-1.16-1.15s-.86-1.42-.86-1.42.29.95.47 1.35c.11.23.43.94.89 1.55.43.57 1.26 1.56 2.52 1.79s2.13-.34 2.34-.48.67-.52.95-.82c.3-.32.58-.73.74-.97.11-.18.3-.54.3-.54l-.3-1.57z"/>
  <g fill="#005a9c">
   <path d="M11.44 7.13l2.85 9.7 2.85-9.7h2.07l-4.72 15.93h-.2l-2.95-9.88-2.95 9.88h-.2L3.47 7.13h2.07l2.85 9.7 1.93-6.53-.94-3.17h2.07z"/>
   <path d="M25.07 17.95c0 1.44-.38 2.66-1.15 3.64s-1.76 1.48-2.98 1.48c-.92 0-1.72-.29-2.4-.88s-1.19-1.37-1.52-2.37l1.61-.67c.24.6.55 1.08.94 1.43s.84.52 1.37.52c.55 0 1.02-.31 1.4-.92s.57-1.36.57-2.22c0-.96-.2-1.7-.61-2.22-.47-.62-1.21-.93-2.22-.93h-.79v-.94l2.75-4.76h-3.33l-.93 1.57h-.59V7.14h7.67v.96l-2.91 5.02c1.02.33 1.8.93 2.32 1.79.52.87.79 1.88.79 3.05z"/>
  </g>
 </g>
</svg>
