
<svg xmlns="http://www.w3.org/2000/svg" version="1.1" xmlns:xlink="http://www.w3.org/1999/xlink" preserveAspectRatio="none" x="0px" y="0px" width="155px" height="155px" viewBox="0 0 155 155">
<defs>
<g id="Layer0_0_FILL">
<path fill="#999999" stroke="none" d="
M 130.55 24.45
Q 126.4 20.3 121.9 16.9 102.7 2.5 77.5 2.5 52.35 2.5 33.2 16.9 28.65 20.3 24.5 24.45 2.5 46.4 2.5 77.5 2.5 108.55 24.5 130.5 43.5 149.55 69.3 152.1 73.3 152.5 77.5 152.5 81.7 152.5 85.75 152.1 111.55 149.55 130.55 130.5 140.6 120.45 146.05 108.5 152.5 94.35 152.5 77.5 152.5 60.65 146.05 46.5 140.6 34.5 130.55 24.45 Z"/>
</g>

<g id="___3_0_Layer0_0_FILL">
<path fill="#FFFFFF" stroke="none" d="
M 91.8 19.05
Q 91.8 15.15 90.3 11.6 88.85 8.2 86.2 5.55 83.6 2.9 80.15 1.45 76.6 0 72.75 0
L 19.05 0
Q 15.2 0 11.65 1.45 8.2 2.9 5.6 5.55 2.95 8.2 1.5 11.6 0 15.15 0 19.05
L 0 45.85
Q 0 49.75 1.5 53.3 2.95 56.7 5.6 59.35 8.2 62 11.65 63.45 15.2 64.95 19.05 64.95
L 72.75 64.95
Q 76.6 64.95 80.15 63.45 83.6 62 86.2 59.35 88.85 56.7 90.3 53.3 91.8 49.75 91.8 45.85
L 91.8 19.05
M 59.85 31.95
Q 60.4 32.25 60.4 32.85 60.4 33.5 59.85 33.75
L 34.75 45.75
Q 34.25 45.95 33.75 45.65 33.3 45.35 33.3 44.8
L 33.3 20.1
Q 33.3 19.55 33.8 19.25 34.25 18.95 34.75 19.25
L 59.85 31.95 Z"/>
</g>
</defs>

<g transform="matrix( 1, 0, 0, 1, 0,0) ">
<use xlink:href="#Layer0_0_FILL"/>
</g>

<g transform="matrix( 1, 0, 0, 1, 31.6,45.05) ">
<g transform="matrix( 1, 0, 0, 1, 0,0) ">
<use xlink:href="#___3_0_Layer0_0_FILL"/>
</g>
</g>
</svg>
