
<svg xmlns="http://www.w3.org/2000/svg" version="1.1" xmlns:xlink="http://www.w3.org/1999/xlink" preserveAspectRatio="none" x="0px" y="0px" width="155px" height="155px" viewBox="0 0 155 155">
<defs>
<g id="Layer0_0_FILL">
<path fill="#999999" stroke="none" d="
M 130.55 24.45
Q 126.4 20.3 121.9 16.9 102.7 2.5 77.5 2.5 52.35 2.5 33.2 16.9 28.65 20.3 24.5 24.45 2.5 46.4 2.5 77.5 2.5 108.55 24.5 130.5 43.5 149.55 69.3 152.1 73.3 152.5 77.5 152.5 81.7 152.5 85.75 152.1 111.55 149.55 130.55 130.5 140.6 120.45 146.05 108.5 152.5 94.35 152.5 77.5 152.5 60.65 146.05 46.5 140.6 34.5 130.55 24.45 Z"/>
</g>

<g id="Layer0_1_FILL">
<path fill="#FFFFFF" stroke="none" d="
M 179 361.25
L 244.15 286.85 301.05 361.25 373.75 361.25 280.9 238.55 359.85 148.35 323.7 148.35 264.2 216.35 212.7 148.35 138.2 148.35 227.25 264.8 142.85 361.25 179 361.25
M 180.35 168.8
L 201.85 168.8 331.05 339.65 311.05 339.65 180.35 168.8 Z"/>
</g>
</defs>

<g transform="matrix( 1, 0, 0, 1, 0,0) ">
<use xlink:href="#Layer0_0_FILL"/>
</g>

<g transform="matrix( 0.3628997802734375, 0, 0, 0.3628997802734375, -15.4,-14.95) ">
<use xlink:href="#Layer0_1_FILL"/>
</g>
</svg>
